<svg width="225" height="18" viewBox="0 0 225 18" fill="none" xmlns="http://www.w3.org/2000/svg">
<path d="M0.480469 18.0004H5.2191V12.8186H7.8441C11.8242 12.8186 14.4918 10.4749 14.4918 6.71635C14.4918 3.00044 11.8924 0.545898 8.01456 0.545898H0.480469V18.0004ZM5.2191 9.13681V4.32999H6.88956C8.55149 4.32999 9.54865 5.21635 9.54865 6.71635C9.54865 8.20783 8.55149 9.13681 6.88956 9.13681H5.2191Z" fill="white"/>
<path d="M16.2305 18.0004H20.9691V12.2391H22.6055L25.6737 18.0004H30.8214L27.2759 11.4891C29.1339 10.5942 30.2418 8.89817 30.2418 6.47772C30.2418 2.76181 27.6424 0.545898 23.7646 0.545898H16.2305V18.0004ZM20.9691 8.55726V4.32999H22.6396C24.3015 4.32999 25.2987 4.97772 25.2987 6.47772C25.2987 7.96919 24.3015 8.55726 22.6396 8.55726H20.9691Z" fill="white"/>
<path d="M31.7844 4.36408H37.0344V18.0004H41.7049V4.36408H46.9549V0.545898H31.7844V4.36408Z" fill="white"/>
<path d="M48.7383 18.0004H60.5337V14.1823H53.4769V0.545898H48.7383V18.0004Z" fill="white"/>
<path d="M77.5515 0.545898H72.8129V9.68226H72.6765L66.4719 0.545898H62.4492V18.0004H67.1879V8.82999H67.2901L73.5969 18.0004H77.5515V0.545898Z" fill="white"/>
<path d="M86.5089 18.0004C91.8271 18.0004 95.2021 14.7277 95.2021 9.27317C95.2021 3.81863 91.8271 0.545898 86.4407 0.545898H79.793V18.0004H86.5089ZM84.5316 13.9777V4.56863H86.2021C88.9293 4.56863 90.4293 5.62544 90.4293 9.27317C90.4293 12.9209 88.9293 13.9777 86.3384 13.9777H84.5316Z" fill="white"/>
<path d="M113.409 17.455L121.591 9.27317L113.409 1.09135L110.988 3.49476L114.994 7.50044H104.051V11.0459H114.994L110.988 15.0345L113.409 17.455Z" fill="white"/>
<path d="M129.855 18.0004H134.594V12.8186H137.219C141.199 12.8186 143.867 10.4749 143.867 6.71635C143.867 3.00044 141.267 0.545898 137.39 0.545898H129.855V18.0004ZM134.594 9.13681V4.32999H136.265C137.926 4.32999 138.924 5.21635 138.924 6.71635C138.924 8.20783 137.926 9.13681 136.265 9.13681H134.594Z" fill="white"/>
<path d="M145.605 18.0004H150.344V12.2391H151.98L155.049 18.0004H160.196L156.651 11.4891C158.509 10.5942 159.617 8.89817 159.617 6.47772C159.617 2.76181 157.017 0.545898 153.14 0.545898H145.605V18.0004ZM150.344 8.55726V4.32999H152.015C153.676 4.32999 154.674 4.97772 154.674 6.47772C154.674 7.96919 153.676 8.55726 152.015 8.55726H150.344Z" fill="white"/>
<path d="M161.159 4.36408H166.409V18.0004H171.08V4.36408H176.33V0.545898H161.159V4.36408Z" fill="white"/>
<path d="M178.113 18.0004H189.909V14.1823H182.852V0.545898H178.113V18.0004Z" fill="white"/>
<path d="M206.926 0.545898H202.188V9.68226H202.051L195.847 0.545898H191.824V18.0004H196.563V8.82999H196.665L202.972 18.0004H206.926V0.545898Z" fill="white"/>
<path d="M215.884 18.0004C221.202 18.0004 224.577 14.7277 224.577 9.27317C224.577 3.81863 221.202 0.545898 215.816 0.545898H209.168V18.0004H215.884ZM213.907 13.9777V4.56863H215.577C218.304 4.56863 219.804 5.62544 219.804 9.27317C219.804 12.9209 218.304 13.9777 215.713 13.9777H213.907Z" fill="white"/>
</svg>
